# xmcd CD database file
#
# Track frame offsets:
#	182
#	13525
#	30435
#	46032
#	60110
#	71315
#	85002
#	120385
#	133652
#	149570
#	161702
#	173932
#	187035
#	221120
#	232055
#	242762
#	254042
#
# Disc length: 3556 seconds
#
# Revision: 0
# Processed by: cddbd v1.5.1PL2 Copyright (c) Steve Scherf et al.
# Submitted via: CDex 1.51
#
DISCID=eb0de211
DTITLE=Charlie Parker - Charlie Parker Greatest Hits
DYEAR=1900
DGENRE=Jazz
TTITLE0=Bluebird
TTITLE1=Congo Blues
TTITLE2=Dewey square
TTITLE3=Billy's bounce
TTITLE4=The hymn
TTITLE5=Cheers
TTITLE6=Perdido
TTITLE7=Cheryl
TTITLE8=I get a kick out of you
TTITLE9=Marmaduke
TTITLE10=Laird baird
TTITLE11=Quasimodo
TTITLE12=Salt peanuts
TTITLE13=Constellation
TTITLE14=Donna Lee
TTITLE15=Street Beat
TTITLE16=Be bop a Lula
EXTD=
EXTT0=
EXTT1=
EXTT2=
EXTT3=
EXTT4=
EXTT5=
EXTT6=
EXTT7=
EXTT8=
EXTT9=
EXTT10=
EXTT11=
EXTT12=
EXTT13=
EXTT14=
EXTT15=
EXTT16=
PLAYORDER=
